<svg width="160" height="107" viewBox="0 0 160 107" fill="none" xmlns="http://www.w3.org/2000/svg">
<rect width="160" height="107" fill="#FCFAF7"/>
<g clipPath="url(#clip0_646_6551)">
<path d="M130.068 62.5804V51.4776L140.919 63.0009L140.999 45.9262H138.685V57.1131L127.754 45.6738L127.834 62.5804H130.068Z" fill="#231F20"/>
<path d="M125.281 45.7568H116.424V62.5793H125.759V60.3924H118.897V55.1774H124.961V52.9905H118.897V48.0279H125.281V45.7568Z" fill="#231F20"/>
<path d="M113.313 45.9258H110.84V62.58H113.313V45.9258Z" fill="#231F20"/>
<path d="M105.492 48.0287C104.694 47.2717 103.817 46.6829 102.779 46.3465C101.583 46.01 100.306 45.8418 99.0292 45.8418H95.7578V62.496H99.0292C100.306 62.5801 101.503 62.4119 102.7 61.9913C103.737 61.6549 104.615 61.1502 105.492 60.3932C108.764 57.281 109.003 51.982 106.051 48.5334C105.811 48.4493 105.652 48.281 105.492 48.0287ZM103.737 58.6268C103.178 59.1315 102.54 59.5521 101.822 59.8044C100.944 60.0568 100.067 60.225 99.109 60.1409H97.992V48.281H99.109C100.785 48.1128 102.46 48.7016 103.737 49.7951C104.934 50.8885 105.572 52.5708 105.572 54.253C105.652 55.9353 104.934 57.5334 103.737 58.6268Z" fill="#231F20"/>
<path d="M92.8055 45.9258H90.332V62.58H92.8055V45.9258Z" fill="#231F20"/>
<path d="M83.9489 55.3465C84.667 55.01 85.3053 54.5054 85.7043 53.9166C86.4224 52.9913 86.8213 51.8979 86.8213 50.7203C86.8213 49.2904 86.2628 47.9446 85.2255 47.0194C84.268 46.1782 82.752 45.8418 80.6774 45.8418H77.8848V62.496H80.2785V55.9353H81.5551L85.9436 62.5801H88.7363L83.9489 55.3465ZM80.9966 54.0007H80.2785V47.9446H81.1562C83.3105 47.9446 84.4276 49.0381 84.4276 50.9726C84.3478 52.9072 83.2307 54.0007 80.9966 54.0007Z" fill="#231F20"/>
<path d="M75.253 45.7568H66.3164V62.5793H75.6519V60.3924H68.8697V55.1774H74.854V52.9905H68.8697V48.0279H75.253V45.7568Z" fill="#231F20"/>
<path d="M48.8413 62.5796L49.8786 52.5703L55.3841 62.5796L60.8099 52.6544L61.8472 62.5796H64.1611L62.0067 45.5049L55.3841 57.9535L48.7615 45.589L46.5273 62.5796H48.8413Z" fill="#231F20"/>
<path d="M30.8083 54.8412L30.9679 54.5047C32.4839 51.5608 33.7606 48.4487 36.3139 46.2617C37.3512 45.3365 39.9843 44.7477 39.5055 47.6075C38.7076 50.8038 34.7979 54.2524 31.2871 54.8412H30.8083ZM37.5108 59.215C38.7076 59.2991 42.2982 57.8692 42.2982 55.9346C42.1386 54.9253 40.9418 55.0935 40.3034 55.2617C38.6278 55.7664 37.1118 57.7851 36.3139 59.1309C35.7554 60.0561 34.9575 60.729 34 61.0655C32.5637 61.5702 30.9679 61.7384 29.4519 61.486C28.4944 61.3178 28.1752 61.2337 26.5794 60.8131C28.3348 59.2991 29.4519 57.1122 30.7285 55.1776C34.3989 54.7571 37.6703 52.486 39.5055 49.1216C40.3034 47.6075 40.5428 45.4206 38.6278 45.0842C37.5108 44.9159 36.5533 45.4206 35.4362 46.1776C32.4042 48.3645 30.7285 51.729 29.2125 55.0094C28.5742 55.0935 27.8561 55.0935 27.2178 54.9253C26.1805 54.7571 25.223 54.3365 24.4251 53.7477C22.5101 52.3178 21.7122 49.7945 22.3505 47.4393L21.9516 47.6075C21.5526 49.2057 21.792 50.8038 22.5101 52.2337C23.1484 53.4954 24.2655 54.4206 25.6219 54.8412C26.5794 55.2617 27.6167 55.43 28.654 55.3459H29.1327L28.8934 55.8505C28.4146 56.8599 27.8561 57.8692 27.2975 58.8786C27.2178 58.9627 27.138 59.215 27.0582 59.2991C26.6592 59.8038 26.4198 60.1402 26.0209 60.6449C24.0261 60.0561 21.6324 59.7197 20.1962 60.3085C20.1962 60.3085 19.2387 60.6449 19.1589 61.486C19.0791 62.6636 20.8345 62.9159 20.8345 62.9159C22.5899 63.2524 24.2655 62.5795 26.0209 61.3178C27.6965 61.9066 29.7711 63.3365 31.8456 63.0001C32.3244 62.9159 32.8031 62.8318 33.2818 62.5795C33.6808 62.4113 34 62.1589 34.3191 61.9066C35.0372 61.3178 35.5958 60.5608 36.1543 59.8038C35.9149 60.3926 35.9149 61.0655 36.0745 61.6543C36.2341 62.2431 36.6331 62.6636 37.1916 62.7477C39.4257 63.2524 41.1013 61.486 42.378 59.7197H42.1386C41.4205 60.8131 39.5055 63.0001 37.5905 62.4954C36.3139 61.8225 37.032 60.1402 37.5108 59.215ZM37.6703 58.8786C38.2289 57.8692 39.2662 56.1029 40.7024 55.43C41.0216 55.1776 41.5003 55.3459 41.7397 55.6823C41.7397 55.6823 41.7397 55.6823 41.7397 55.7664C41.8195 56.1029 41.8992 56.4393 41.2609 57.1963C40.2236 58.0374 38.947 58.7103 37.6703 58.8786ZM24.824 61.4019C24.1857 61.8225 22.3505 62.7477 20.9143 62.4954C20.9143 62.4954 19.3185 62.3272 19.2387 61.5702C19.1589 60.6449 20.0366 60.3926 20.6749 60.3085C22.2707 60.1402 23.9463 60.3926 25.4624 60.9814L25.3826 61.0655L24.824 61.4019Z" fill="#231F20"/>
</g>
<defs>
<clipPath id="clip0_646_6551">
<rect width="122" height="18" fill="white" transform="translate(19 45)"/>
</clipPath>
</defs>
</svg>
