<svg width="160" height="107" viewBox="0 0 160 107" fill="none" xmlns="http://www.w3.org/2000/svg">
<rect width="160" height="107" fill="#FCFAF7"/>
<g clipPath="url(#clip0_646_6475)">
<path d="M101.132 30.5605L103.322 29.2898V22L94.7656 26.8822M102.501 24.4745V29.0223L100.516 25.6115L102.501 24.4745ZM101.337 29.6911L97.3668 27.4172L99.3519 26.2803L101.337 29.6911Z" fill="#8C734C"/>
<path d="M100.446 31.6974L94.0801 28.0859V37.9171L100.446 34.3057M95.7914 30.0254L99.7616 32.2993H95.7914V30.0254ZM95.7914 35.9108V33.6369H99.7616L95.7914 35.9108Z" fill="#8C734C"/>
<path d="M104.691 36.6467V43.9365L113.316 39.0543L106.95 35.376M105.581 41.462V36.9142L107.566 40.325L105.581 41.462ZM108.73 39.6562L106.745 36.2454L110.715 38.5193L108.73 39.6562Z" fill="#8C734C"/>
<path d="M107.635 31.6974V34.2388L114.001 37.8503V28.0859M112.221 35.9108L108.251 33.6369H112.221V35.9108ZM112.221 32.2993H108.251L112.221 30.0254V32.2993Z" fill="#8C734C"/>
<path d="M113.316 26.8822L104.691 22V29.2898L106.882 30.5605M105.581 24.4745L107.566 25.6115L105.581 29.0223V24.4745ZM108.73 26.2803L110.715 27.4172L106.745 29.6911L108.73 26.2803Z" fill="#8C734C"/>
<path d="M94.7656 39.0543L103.391 43.9365V36.6467L101.132 35.376M102.501 41.462L100.516 40.325L102.501 36.9142V41.462ZM99.3519 39.6562L97.3668 38.5193L101.337 36.2454L99.3519 39.6562Z" fill="#8C734C"/>
<path d="M56.0208 63.9332C56.0208 67.4109 56.0208 70.4205 55.8155 72.0256C55.6786 73.0957 55.4732 73.9651 54.6518 74.0988C54.3095 74.1657 53.8304 74.2326 53.2827 74.2326C52.8036 74.2326 52.6667 74.3664 52.6667 74.567C52.6667 74.8345 52.9405 74.9683 53.4196 74.9683C54.994 74.9683 57.4583 74.8345 58.3482 74.8345C59.4435 74.8345 61.9077 74.9683 64.5089 74.9683C64.9196 74.9683 65.2619 74.8345 65.2619 74.567C65.2619 74.3664 65.0565 74.2326 64.6458 74.2326C64.0298 74.2326 63.2083 74.1657 62.6607 74.0988C61.497 73.9651 61.2917 73.0957 61.1548 72.0256C60.9494 70.3536 60.9494 67.4109 60.9494 63.8664V48.2836L65.878 48.4173C69.369 48.4842 70.3958 49.5543 70.4643 50.5574L70.5327 50.9587C70.6012 51.5606 70.6696 51.6944 70.9435 51.6944C71.1488 51.6944 71.2857 51.4937 71.2857 51.0925C71.2857 50.0893 71.4226 47.481 71.4226 46.6785C71.4226 46.0766 71.3542 45.8759 71.0804 45.8759C70.7381 45.8759 69.8482 46.2772 67.3155 46.2772H51.8452C50.5446 46.2772 49.1071 46.2103 47.9435 46.0766C46.9851 46.0097 46.5744 45.6084 46.2321 45.6084C46.0268 45.6084 45.8899 45.809 45.753 46.3441C45.753 46.6785 45 50.1562 45 50.7581C45 51.1594 45.0685 51.36 45.3423 51.36C45.5476 51.36 45.6845 51.2262 45.753 50.8918C45.8214 50.5574 46.0268 50.1562 46.4375 49.5543C47.0536 48.7517 47.9435 48.5511 50.2024 48.4842L56.0208 48.3504" fill="#8C734C"/>
<path d="M85.5918 65.0701L85.9341 65.3376L89.0144 73.43C89.2198 73.8981 88.946 74.2325 88.6721 74.2994C88.2614 74.3663 88.1245 74.4332 88.1245 74.6338C88.1245 74.9013 88.6037 74.9013 89.2882 74.9682C92.3686 75.0351 95.1067 75.0351 96.4757 75.0351C97.9132 75.0351 98.2555 74.9682 98.2555 74.6338C98.2555 74.3663 98.0501 74.2994 97.7763 74.2994C97.2971 74.2994 96.7495 74.2325 96.2019 74.1657C95.3805 73.965 94.2852 73.43 92.8477 70.0192C90.3835 64.2007 84.2912 48.6848 83.4013 46.5446C82.9906 45.6752 82.7852 45.3408 82.443 45.3408C82.0323 45.3408 81.8269 45.7421 81.3477 46.879L71.7644 70.8217C71.0114 72.7612 70.2585 74.0319 68.5472 74.2325C68.2733 74.2994 67.7257 74.2994 67.3835 74.2994C67.1097 74.2994 66.9043 74.3663 66.9043 74.6338C66.9043 74.9682 67.1097 75.0351 67.6573 75.0351C69.6424 75.0351 71.7644 74.9013 72.1751 74.9013C73.3388 74.9013 74.9817 75.0351 76.2138 75.0351C76.6245 75.0351 76.8299 74.9682 76.8299 74.6338C76.8299 74.4332 76.693 74.2994 76.2823 74.2994H75.7347C74.571 74.2994 74.2287 73.8313 74.2287 73.0956C74.2287 72.6274 74.4341 71.758 74.7763 70.7548L76.8299 65.2708C76.8983 65.0701 76.9668 64.9364 77.1722 64.9364M77.8567 63.1306L77.7198 62.8631L81.2108 53.5001L81.4162 53.1657L81.6216 53.5001L85.0442 62.93L84.8388 63.1306H77.8567Z" fill="#8C734C"/>
<path d="M102.158 68.3469C102.158 75.8374 102.226 79.6495 99.3512 82.5922C98.5982 83.3278 98.0506 83.796 97.5714 84.0635C96.9554 84.3979 96.75 84.5317 96.75 84.7323L97.0238 85.0667C97.2292 85.0667 97.503 84.9998 97.7768 84.866C98.5298 84.4648 99.1458 84.1973 99.625 83.8629C103.185 81.589 105.17 78.9807 105.991 76.6399C106.744 74.4998 106.881 72.0253 106.881 69.8852C106.881 68.0125 106.744 66.1399 106.744 64.5348V57.3788C106.744 51.5603 106.744 50.4902 106.813 49.2864C106.881 47.9488 107.155 47.2801 108.182 47.1463C108.661 47.0794 108.866 47.0125 109.277 47.0125C109.756 47.0125 109.961 46.9457 109.961 46.6781C109.961 46.4106 109.687 46.3438 109.14 46.3438C107.702 46.3438 105.307 46.4775 104.417 46.4775C103.458 46.4775 101.062 46.3438 99.1458 46.3438C98.5982 46.3438 98.3244 46.4106 98.3244 46.6781C98.3244 46.9457 98.5298 47.0125 98.9405 47.0125C99.4881 47.0125 100.104 47.0794 100.378 47.1463C101.61 47.4138 101.884 48.0157 101.952 49.2864C102.021 50.4902 102.021 51.5603 102.021 57.3788" fill="#8C734C"/>
</g>
<defs>
<clipPath id="clip0_646_6475">
<rect width="69" height="63" fill="white" transform="translate(45 22)"/>
</clipPath>
</defs>
</svg>
