<svg width="160" height="107" viewBox="0 0 160 107" fill="none" xmlns="http://www.w3.org/2000/svg">
<rect width="160" height="107" fill="#FCFAF7"/>
<mask id="mask0_646_6487" style="mask-type:luminance" maskUnits="userSpaceOnUse" x="20" y="35" width="37" height="24">
<path d="M20 58.1189V35H38.3525H56.7049V58.1189H20Z" fill="white"/>
</mask>
<g mask="url(#mask0_646_6487)">
<path fill-rule="evenodd" clip-rule="evenodd" d="M56.7034 35H49.8858C50.6202 35.3453 51.0596 36.1784 51.0596 37.0798C51.0596 37.9109 50.8027 39.0552 50.2891 40.3381L46.8803 49.2455L40.761 35H35.2637C36.8025 36.1082 37.5348 38.3606 36.3992 40.858L32.3686 49.6611L26.2854 35H19.8711C20.8984 35.6585 21.6668 37.1822 22.5837 39.2981L28.8494 54.168C29.692 56.1776 30.6451 57.2175 32.6615 58.1189L39.184 44.2206L43.6562 54.168C44.5731 56.1434 45.4879 57.2175 47.5043 58.1189L56.7034 35Z" fill="#636668"/>
</g>
<path fill-rule="evenodd" clip-rule="evenodd" d="M71.501 53.5205C69.8667 54.637 68.1576 55.1257 65.7666 55.1257C64.4754 55.1257 63.3361 55.0207 62.5002 54.845V49.1289H64.2467C66.3737 49.1289 67.0952 49.2682 67.6649 49.8598V46.5141H62.5002V41.8076C62.5002 41.8076 63.2965 41.7026 64.9308 41.7026C66.829 41.7026 68.1576 41.9812 68.9186 42.7485V39.2979H56.5371C57.5247 39.7845 57.6765 40.5174 57.6765 43.5501V53.2761C57.6765 56.3109 57.5247 57.0418 56.5371 57.5304H70.0954L71.501 53.5205Z" fill="#636668"/>
<path fill-rule="evenodd" clip-rule="evenodd" d="M87.2138 52.2165C87.2138 46.6894 78.0544 47.0694 78.0544 43.6847C78.0544 42.6825 79.0345 41.8204 80.7306 41.8204C82.5402 41.8204 84.0857 42.4065 85.7819 43.8928V39.954C84.0486 39.5399 82.6537 39.2979 80.9205 39.2979C77.1506 39.2979 73.3065 41.3703 73.3065 44.791C73.3065 51.0062 82.466 50.1101 82.466 53.5968C82.466 54.841 81.2589 55.7392 79.1851 55.7392C76.8494 55.7392 74.5879 54.875 72.25 53.0106L73.4943 57.3275C75.3781 57.9497 76.9629 58.2597 78.6961 58.2597C83.5204 58.2597 87.2138 55.8432 87.2138 52.2165Z" fill="#636668"/>
<path fill-rule="evenodd" clip-rule="evenodd" d="M103.671 39.2979H87.5558L86.4629 42.7485C87.6694 41.9812 88.7645 41.7026 90.7644 41.7026H92.6879V53.2761C92.6879 56.3109 92.5371 57.0418 91.5185 57.5304H98.5763C97.5949 57.0418 97.4441 56.3109 97.4441 53.2761V41.7026H99.1424C100.915 41.7026 102.124 41.9469 102.727 42.7485L103.671 39.2979Z" fill="#636668"/>
<path fill-rule="evenodd" clip-rule="evenodd" d="M112.646 57.5304C111.709 57.0418 111.566 56.3109 111.566 53.2761V43.5501C111.566 40.5174 111.709 39.7845 112.646 39.2979H105.912C106.848 39.7845 106.992 40.5174 106.992 43.5501V53.2761C106.992 56.3109 106.848 57.0418 105.912 57.5304H112.646Z" fill="#636668"/>
<path fill-rule="evenodd" clip-rule="evenodd" d="M135.838 39.2979H129.373C130.658 39.919 130.809 41.2355 130.809 43.2413V50.5752L122.526 41.5802C121.696 40.6464 121.126 39.9551 120.599 39.2979H114.889C116.06 39.919 116.628 41.0973 116.628 43.5519V53.4487C116.628 55.4545 116.477 56.769 115.191 57.3921H121.656C120.371 56.769 120.22 55.4545 120.22 53.4487V45.9745L128.766 55.2461C129.977 56.5626 131.528 57.1156 134.401 57.5304V43.2413C134.401 41.2355 134.59 39.919 135.838 39.2979Z" fill="#636668"/>
<mask id="mask1_646_6487" style="mask-type:luminance" maskUnits="userSpaceOnUse" x="25" y="66" width="17" height="6">
<path d="M41.1272 71.9951H25.125V66.0234H41.1272V71.9951Z" fill="white"/>
</mask>
<g mask="url(#mask1_646_6487)">
<path fill-rule="evenodd" clip-rule="evenodd" d="M29.9936 69.146V70.7425C29.9936 71.1376 30.0614 71.7814 29.5719 71.9499V71.9759H31.4053V71.9499C30.9158 71.7814 30.9726 71.1376 30.9726 70.7425V67.4092C30.9726 67.0121 30.9158 66.3683 31.4053 66.2019V66.1758H29.5719V66.2019C30.0614 66.3683 29.9936 67.0121 29.9936 67.4172V68.5103H26.5257V67.4172C26.5257 67.0121 26.4689 66.3683 26.9496 66.2019V66.1758H25.125V66.2019C25.6145 66.3683 25.5467 67.0121 25.5467 67.4092V70.7425C25.5467 71.1376 25.6036 71.7814 25.125 71.9499V71.9759H26.9496V71.9499C26.4689 71.7814 26.5257 71.1376 26.5257 70.7425V69.146H29.9936Z" fill="#636668"/>
</g>
<mask id="mask2_646_6487" style="mask-type:luminance" maskUnits="userSpaceOnUse" x="25" y="66" width="17" height="6">
<path d="M41.1272 71.9951H25.125V66.0234H41.1272V71.9951Z" fill="white"/>
</mask>
<g mask="url(#mask2_646_6487)">
<path fill-rule="evenodd" clip-rule="evenodd" d="M37.6274 66.6602C39.144 66.6602 40.0377 67.9017 40.0377 69.1893C40.0377 70.5029 39.1046 71.4816 37.6471 71.4816C36.1371 71.4816 35.1866 70.2121 35.1866 68.9767C35.1866 67.647 36.1371 66.6602 37.6274 66.6602ZM37.693 66.0245C35.6782 65.9803 34.0918 67.3822 34.0918 69.0569C34.0918 70.8639 35.6957 72.1154 37.599 72.1154C39.5089 72.1154 41.1325 70.8098 41.1325 69.0128C41.1325 67.4264 39.7099 66.0144 37.693 66.0245Z" fill="#636668"/>
</g>
<path fill-rule="evenodd" clip-rule="evenodd" d="M45.7447 66.9749H46.5182C46.8015 66.9749 47.1453 67.0188 47.2567 67.3262H47.2821L47.5556 66.2822H47.5302C47.4188 66.3341 47.2821 66.3441 47.1356 66.3441H43.7189C43.6075 66.3261 43.4962 66.3261 43.3926 66.2822H43.3672L43.0664 67.3262H43.0918C43.3575 67.0707 43.7443 66.9749 44.1135 66.9749H44.8695V70.8891C44.8695 71.2823 44.9203 71.923 44.4905 72.0907V72.1166H46.192V72.0907C45.7368 71.8172 45.7447 71.4759 45.7447 70.9749V66.9749Z" fill="#636668"/>
<path fill-rule="evenodd" clip-rule="evenodd" d="M50.9873 69.2915H51.5863C51.8369 69.2915 52.1778 69.2835 52.3068 69.5378H52.3308V68.6048H52.3068C52.2091 68.6568 52.0802 68.6568 51.9512 68.6568H50.9873V67.021C51.2453 66.967 51.5291 66.959 51.8129 66.959C52.1852 66.959 52.5169 66.995 52.7694 67.3114H52.7933V66.2822H52.7694C52.6643 66.3443 52.5261 66.3263 52.3879 66.3263H49.7969V66.3523C50.2097 66.5185 50.1599 67.1612 50.1599 67.5656V70.8853C50.1599 71.2797 50.2097 71.9304 49.7969 72.0906V72.1166H53.173L53.5378 70.9634H53.5139C53.1085 71.3498 52.5501 71.536 52.0157 71.4819L50.9873 71.3778V69.2915Z" fill="#636668"/>
<mask id="mask3_646_6487" style="mask-type:luminance" maskUnits="userSpaceOnUse" x="56" y="66" width="26" height="6">
<path d="M81.1858 71.9958H56.8672V66.0332H81.1858V71.9958Z" fill="white"/>
</mask>
<g mask="url(#mask3_646_6487)">
<path fill-rule="evenodd" clip-rule="evenodd" d="M58.2392 71.2619V67.4172C58.2392 67.0221 58.1755 66.3683 58.6513 66.2019V66.1758H56.8672V66.2019C57.3429 66.3683 57.2877 67.0121 57.2877 67.4172V70.7425C57.2877 71.1376 57.3429 71.7894 56.8672 71.9499V71.9759H60.7051L61.1893 70.8027H61.1617C60.6945 71.1737 60.1444 71.3763 59.5093 71.3402L58.2392 71.2619Z" fill="#636668"/>
</g>
<mask id="mask4_646_6487" style="mask-type:luminance" maskUnits="userSpaceOnUse" x="56" y="66" width="26" height="6">
<path d="M81.1858 71.9958H56.8672V66.0332H81.1858V71.9958Z" fill="white"/>
</mask>
<g mask="url(#mask4_646_6487)">
<path fill-rule="evenodd" clip-rule="evenodd" d="M67.2864 66.2277C66.8382 66.0954 66.3625 66.0332 65.8973 66.0332C64.7568 66.0332 63.5526 66.4564 63.5526 67.5675C63.5526 69.4367 66.7639 69.19 66.7639 70.5638C66.7639 71.1815 65.9611 71.4824 65.4301 71.4824C64.7016 71.4824 63.9349 71.1996 63.3848 70.7503L63.6566 71.8514C64.1876 72.0359 64.7568 72.1161 65.326 72.1161C66.783 72.1161 67.828 71.2357 67.828 70.2911C67.828 68.6605 64.6166 68.6786 64.6166 67.4712C64.6166 66.8615 65.2899 66.669 65.8209 66.669C66.3455 66.669 66.9232 66.8715 67.2864 67.2245V66.2277Z" fill="#636668"/>
</g>
<mask id="mask5_646_6487" style="mask-type:luminance" maskUnits="userSpaceOnUse" x="56" y="66" width="26" height="6">
<path d="M81.1858 71.9958H56.8672V66.0332H81.1858V71.9958Z" fill="white"/>
</mask>
<g mask="url(#mask5_646_6487)">
<path fill-rule="evenodd" clip-rule="evenodd" d="M77.8075 70.7503C77.4804 71.1555 77.0047 71.5084 76.4355 71.5084C75.7155 71.5084 75.1271 71.0752 75.1271 70.3532C75.1271 69.8057 75.5094 69.3565 75.9682 69.0496L77.8075 70.7503ZM76.1275 68.0348C75.8748 67.8242 75.4733 67.4712 75.4733 67.1182C75.4733 66.7833 75.7537 66.6148 76.0893 66.6148C76.4355 66.6148 76.7328 66.8174 76.7328 67.1543C76.7328 67.5153 76.4248 67.8322 76.1275 68.0348ZM81.1866 71.9757V71.9497C79.4217 71.1815 78.0496 69.8157 76.6585 68.5562C77.0875 68.1932 77.4698 67.8322 77.4698 67.2506C77.4698 66.5186 76.873 66.0332 76.1275 66.0332C75.399 66.0332 74.6705 66.5286 74.6705 67.2586C74.6705 67.752 75.0719 68.1671 75.4181 68.5021C74.7363 69.0135 74.1289 69.5329 74.1289 70.4054C74.1289 71.5004 75.1845 72.0901 76.2379 72.0901C77.1342 72.0901 77.7034 71.7812 78.1813 71.0572C78.4702 71.3219 78.9544 71.6669 79.2921 71.8333C79.5427 71.9577 79.8422 71.9757 80.1693 71.9757H81.1866Z" fill="#636668"/>
</g>
<path fill-rule="evenodd" clip-rule="evenodd" d="M86.4629 66.2822V66.3085C86.9138 66.4759 86.8514 67.1235 86.8514 67.531V70.8759C86.8514 71.2734 86.9138 71.929 86.4629 72.0904V72.1166H88.1516V72.0904C87.7008 71.929 87.7531 71.2834 87.7531 70.8759V66.9036C87.9564 66.8673 88.1516 66.8411 88.3549 66.831C88.9487 66.8047 89.4962 67.176 89.4962 67.8155C89.4962 68.6487 88.673 68.9775 87.9665 69.0824L88.7796 70.3332L89.8585 71.6728C90.1242 71.9996 90.4161 72.1166 90.885 72.1166H91.7002C91.195 71.7979 90.6375 71.3359 90.2671 70.8759L88.993 69.27C89.7176 69.1006 90.4 68.4893 90.4 67.7086C90.4 66.9036 89.7538 66.2822 88.5683 66.2822H86.4629Z" fill="#636668"/>
<mask id="mask6_646_6487" style="mask-type:luminance" maskUnits="userSpaceOnUse" x="94" y="66" width="22" height="6">
<path d="M115.265 71.9951H94.3164V66.0234H115.265V71.9951Z" fill="white"/>
</mask>
<g mask="url(#mask6_646_6487)">
<path fill-rule="evenodd" clip-rule="evenodd" d="M95.72 69.1452H96.4252C96.7225 69.1452 97.1217 69.1372 97.2757 69.3919H97.3039V68.4573H97.2757C97.1607 68.5095 97.0089 68.5095 96.8548 68.5095H95.72V66.8709C96.026 66.8168 96.3601 66.8087 96.6942 66.8087C97.1325 66.8087 97.5231 66.8448 97.8182 67.1617H97.8464V66.1309H97.8182C97.6945 66.193 97.5318 66.175 97.3712 66.175H94.3184V66.2011C94.8044 66.3675 94.748 67.0113 94.748 67.4164V70.7417C94.748 71.1368 94.8044 71.7886 94.3184 71.9491V71.9751H98.2955L98.7251 70.8199H98.6969C98.2196 71.207 97.56 71.3935 96.9307 71.3394L95.72 71.2351V69.1452Z" fill="#636668"/>
</g>
<mask id="mask7_646_6487" style="mask-type:luminance" maskUnits="userSpaceOnUse" x="94" y="66" width="22" height="6">
<path d="M115.265 71.9951H94.3164V66.0234H115.265V71.9951Z" fill="white"/>
</mask>
<g mask="url(#mask7_646_6487)">
<path fill-rule="evenodd" clip-rule="evenodd" d="M105.169 66.2277C104.712 66.0954 104.226 66.0332 103.75 66.0332C102.585 66.0332 101.355 66.4564 101.355 67.5675C101.355 69.4367 104.636 69.19 104.636 70.5638C104.636 71.1815 103.816 71.4824 103.273 71.4824C102.529 71.4824 101.748 71.1996 101.184 70.7503L101.461 71.8514C102.004 72.0359 102.585 72.1161 103.167 72.1161C104.655 72.1161 105.723 71.2357 105.723 70.2911C105.723 68.6605 102.442 68.6786 102.442 67.4712C102.442 66.8615 103.13 66.669 103.672 66.669C104.206 66.669 104.798 66.8715 105.169 67.2245V66.2277Z" fill="#636668"/>
</g>
<mask id="mask8_646_6487" style="mask-type:luminance" maskUnits="userSpaceOnUse" x="94" y="66" width="22" height="6">
<path d="M115.265 71.9951H94.3164V66.0234H115.265V71.9951Z" fill="white"/>
</mask>
<g mask="url(#mask8_646_6487)">
<path fill-rule="evenodd" clip-rule="evenodd" d="M111.788 66.6602C113.294 66.6602 114.181 67.9017 114.181 69.1893C114.181 70.5029 113.257 71.4816 111.808 71.4816C110.308 71.4816 109.367 70.2121 109.367 68.9767C109.367 67.647 110.308 66.6602 111.788 66.6602ZM111.855 66.0245C109.853 65.9803 108.277 67.3822 108.277 69.0569C108.277 70.8639 109.87 72.1154 111.76 72.1154C113.656 72.1154 115.268 70.8098 115.268 69.0128C115.268 67.4264 113.858 66.0144 111.855 66.0245Z" fill="#636668"/>
</g>
<path fill-rule="evenodd" clip-rule="evenodd" d="M117.137 66.2822V66.3085C117.59 66.4759 117.527 67.1235 117.527 67.531V70.8759C117.527 71.2734 117.59 71.929 117.137 72.0904V72.1166H118.827V72.0904C118.377 71.929 118.429 71.2834 118.429 70.8759V66.9036C118.632 66.8673 118.827 66.8411 119.031 66.831C119.625 66.8047 120.172 67.176 120.172 67.8155C120.172 68.6487 119.349 68.9775 118.642 69.0824L119.455 70.3332L120.534 71.6728C120.8 71.9996 121.092 72.1166 121.561 72.1166H122.374C121.871 71.7979 121.313 71.3359 120.943 70.8759L119.669 69.27C120.393 69.1006 121.074 68.4893 121.074 67.7086C121.074 66.9036 120.43 66.2822 119.244 66.2822H117.137Z" fill="#636668"/>
<mask id="mask9_646_6487" style="mask-type:luminance" maskUnits="userSpaceOnUse" x="123" y="66" width="13" height="6">
<path d="M135.55 71.9948H123.684V66.0322H135.55V71.9948Z" fill="white"/>
</mask>
<g mask="url(#mask9_646_6487)">
<path fill-rule="evenodd" clip-rule="evenodd" d="M126.782 66.8092H127.677C128.005 66.8092 128.401 66.8533 128.53 67.1622H128.561L128.878 66.1133H128.848C128.72 66.1654 128.561 66.1755 128.392 66.1755H124.437C124.308 66.1574 124.179 66.1574 124.059 66.1133H124.03L123.682 67.1622H123.711C124.019 66.9055 124.466 66.8092 124.894 66.8092H125.769V70.7422C125.769 71.1373 125.828 71.7811 125.33 71.9495V71.9756H127.3V71.9495C126.773 71.6748 126.782 71.3318 126.782 70.8284V66.8092Z" fill="#636668"/>
</g>
<mask id="mask10_646_6487" style="mask-type:luminance" maskUnits="userSpaceOnUse" x="123" y="66" width="13" height="6">
<path d="M135.55 71.9948H123.684V66.0322H135.55V71.9948Z" fill="white"/>
</mask>
<g mask="url(#mask10_646_6487)">
<path fill-rule="evenodd" clip-rule="evenodd" d="M134.972 66.2277C134.495 66.0954 133.989 66.0332 133.491 66.0332C132.279 66.0332 130.997 66.4564 130.997 67.5675C130.997 69.4367 134.416 69.19 134.416 70.5638C134.416 71.1815 133.561 71.4824 132.994 71.4824C132.218 71.4824 131.404 71.1996 130.818 70.7503L131.106 71.8514C131.673 72.0359 132.279 72.1161 132.885 72.1161C134.436 72.1161 135.549 71.2357 135.549 70.2911C135.549 68.6605 132.13 68.6786 132.13 67.4712C132.13 66.8615 132.844 66.669 133.412 66.669C133.968 66.669 134.583 66.8715 134.972 67.2245V66.2277Z" fill="#636668"/>
</g>
<path fill-rule="evenodd" clip-rule="evenodd" d="M137.327 41.721V41.0695H137.766C137.99 41.0695 138.231 41.1171 138.231 41.3781C138.231 41.702 137.986 41.721 137.712 41.721H137.327ZM137.327 41.9916H137.699L138.26 42.9023H138.621L138.015 41.9763C138.327 41.9382 138.567 41.7744 138.567 41.3972C138.567 40.9818 138.318 40.7989 137.814 40.7989H137.005V42.9023H137.327V41.9916ZM137.718 43.6739C138.723 43.6739 139.583 42.9023 139.583 41.8468C139.583 40.7989 138.723 40.0273 137.718 40.0273C136.702 40.0273 135.842 40.7989 135.842 41.8468C135.842 42.9023 136.702 43.6739 137.718 43.6739ZM136.214 41.8468C136.214 40.9818 136.873 40.3322 137.718 40.3322C138.553 40.3322 139.213 40.9818 139.213 41.8468C139.213 42.7232 138.553 43.3709 137.718 43.3709C136.873 43.3709 136.214 42.7232 136.214 41.8468Z" fill="#636668"/>
</svg>
